/* XPM */
static char *d6eb0fa59a8a46238b23c667dfe57912FTli3GHIJTFvKDLc[] = {
/* columns rows colors chars-per-pixel */
"128 32 15 1 ",
"  c None",
". c #663931",
"X c #683B33",
"o c #73453D",
"O c #794941",
"+ c #7A4C44",
"@ c #DF2626",
"# c #DF4026",
"$ c #DF5226",
"% c #DF7126",
"& c #89544A",
"* c #8C5E56",
"= c #EDB12E",
"- c #FBF236",
"; c #FBF268",
/* pixels */
"                                                                                                                                ",
"                                                                                                                                ",
"                                                                                                                                ",
"                                                                                                                                ",
"                                                                                      @                                         ",
"                                                                                    @@                                          ",
"                                                    @                             @@@@   @                          @           ",
"                                                   @                      @     @@$@@   @                          @            ",
"                  @                             @@@@                     @    $@@$$$   @@                       @@@@            ",
"               @@@@                           @@@$$@  @                 @@@ @@@$$$$@ @@$@                     @@@$$@  @         ",
"              @@$$@                          @@$$$@@ @@                 @$@@@$$$$%$@@$$@                     @@$$$@@ @@         ",
"             @@$%$@  @                     @@@$%%$$@@$@                  @$$$$%%%$$$$%$@                   @@@$%%$$@@$@         ",
"           @@@%==%@@@@                    @@$$%==$%$$@@                 $@$=%%%=-$%%=$@@                  @@$$%==$%$$@@         ",
"           @$%===%@@$@                    @$$%=-=%%%$@                  @$$%%==-=%-=%$@                   @$$%=-=%%%$@          ",
"          @@%===%$@$%@                  @@@$%=--%%%-%@@                 @$%%==--%==-%$@@                @@@$%=--%%%-%@@         ",
"         @@#%=-=%$$%%@@@                @@$%%=--%%--%@@@               @@$%=-=--==--%$$@@  @            @@$%%=--%%--%@@@        ",
"         @$%=---=%%=%@$@                @$$%=---=--=%@$@@             @ @$%==---=--=-%$$$@@             @$$%=---=--=%@$@@       ",
"        @@%=--;--===%$$@               @@$%=--;-----%$%$@@            @@@$%=--;-----%$%%$@             @@$%=--;-----%$%$@@      ",
"        @$%=-;;----=%%@@               @@$%--;;-----%%$@@             @$$%%--;;------=-%$@             @@$%--;;-----%%$@@       ",
"        @%=--;;;;;;-=%@                @$%=--;;;;;;-=%$@              @$%-=--;;;;;;--==%@@             @$%=--;;;;;;-=%$@        ",
"        @%--;;;;;;;-=%@                @$%--;;;;;;;-=%$@              @$%=--;;;;;;;--=%$@              @$%--;;;;;;;-=%$@        ",
"        @%--;;;;;;;=%$@                @%---;;;;;;;-%%$@              @$%---;;;;;;;-==%$@              @%---;;;;;;;-%%$@        ",
"        @%=-;;;;;;-=%@@                @$%=-;;;;;;--%$@@              @$$%=-;;;;;;--=%%$@              @$%=-;;;;;;--%$@@        ",
"        @$%=;;;;;;==%@                 @$%%=;;;;;;-=%@@@              @@$%%=;;;;;;-=%$$@$              @$%%=;;;;;;-=%@@@        ",
"         @$%=======%$@                  @$%%=======%$@@                $@$%%=======%$@@@                @$%%=======%$@@         ",
"     oOO&************&OOo            oO****************Oo            o******************o            oO****************Oo       ",
"     .XXooooo+**+oooooXX.            .XXooo*********ooXX.            .o****************o.            .XXooo*********ooXX.       ",
"      .....XooooooX.....              .....Xoo**ooX.....              ..oo.oo****oo.oo..              .....Xoo**ooX.....        ",
"           XXooooXX                        XXooooXX                        XXooooXX                        XXooooXX             ",
"            ......                          ......                          ......                          ......              ",
"                                                                                                                                ",
"                                                                                                                                "
};
