/* XPM */
static char *bbfd9d78a57946ddcfd38d0605d6e6afEVzM173XxooueO7a[] = {
/* columns rows colors chars-per-pixel */
"128 30 5 1 ",
"  c None",
". c #2F2F2E",
"X c #B26537",
"o c #99253d",
"O c #B9A69F",
/* pixels */
"                                                                                                                                ",
"                                                                                                                                ",
"                                                                                                                                ",
"                                                                                                                                ",
"                                                                                                                                ",
"                                                                                                                                ",
"                                                                                                                                ",
"                                                                                                                                ",
"                                                                                                                                ",
"                                                                                                                                ",
"                                                                                                                                ",
"                                                                                                                                ",
"                                                                                                                                ",
"                                                                                                                                ",
"                                                                                                                                ",
"                                                                                                                                ",
"                                                                                                                                ",
"             ......                          ......                          ......                          ......             ",
"            .oooooo.                        .oooooo. ..                 .....oooooo...                   ....oooooo..           ",
"         ...Xo.oo.oX...                  ...Xo.oo.oX.Xo.               .XoX.Xo.oo.oX.X..                .Xo.Xo.oo.oX...         ",
"        .oX..XXXXXX..Xo.                .oX..XXXXXX...X.              .o.....XXXXXX...oo.              .o....XXXXXX..oo.        ",
"        .X.oo..OO..oo.X.               .X..oo..OO..oo..o.             .o. .oo..OO..oo..X.              .o..oo..OO..oo.X.        ",
"       .o..Oooo..oooO..o.             .o...Oooo..oooO..X.            .X....Oooo..oooO...o.            .X...Oooo..oooO..o.       ",
"       .X...OO.  .OO...X.             .X..X.OO.  .OO...o.            .o..X..OO.  .OO.X..X.            .o..X.OO.  .OO.X.X.       ",
"        .o.X..    ..X.o.             .o. .X...    ..X. ..            ...X..X..    .. . .o.            .. .X...    .. ..o.       ",
"         ....      ....              ..  .. .     . .                  ..  .            ..            ..  .           ...       ",
"                                                                                                                                ",
"                                                                                                                                ",
"                                                                                                                                ",
"                                                                                                                                "
};
