/* XPM */
static char *_ab07f90f387419bbe74e43fff037cc0ILrjC4Upfnms49IB[] = {
/* columns rows colors chars-per-pixel */
"128 30 5 1 ",
"  c None",
". c #2F2F2E",
"X c #B26537",
"o c #D67941",
"O c #B9A69F",
/* pixels */
"                                                                                                                                ",
"                                                                                                                                ",
"                                                                                                                                ",
"                                                                                                                                ",
"                                                                                                                                ",
"                                                                                                                                ",
"                                                                                                                                ",
"                                                                                                                                ",
"                                                                                                                                ",
"                                                                                                                                ",
"                                                                                                                                ",
"                                                                                                                                ",
"                                                                                                                                ",
"                                                                                                                                ",
"                                                                                                                                ",
"             ......                                                                                          ......             ",
"            .oooooo.                         ......                          ......                         .oooooo.            ",
"         ...Xo.oo.oX...                   ...oooooo...                    ...oooooo...                   ...Xo.oo.oX...         ",
"        .oX..XXXXXX..Xo.                 .o.Xo.oo.oX.o.                  .o.Xo.oo.oX.o.                 .oX..XXXXXX..Xo.        ",
"        .X.oo..OO..oo.X.                .X...XXXXXX...X.                .X...XXXXXX...X.                .X.oo..OO..oo.X.        ",
"       .o..Oooo..oooO..o.              .o..oo..OO..oo..o.              .o..oo..OO..oo..o.              .o..Oooo..oooO..o.       ",
"       .X...OO.  .OO...X.              .X..Oooo..oooO..X.              .X..Oooo..oooO..X.              .X...OO.  .OO...X.       ",
"        .o.X..    ..X.o.                .o..OO.  .OO..o.                .o..OO.  .OO..o.                .o.X..    ..X.o.        ",
"         ....      ....                  .....    .....                  .....    .....                  ....      ....         ",
"                                                                                                                                ",
"                                                                                                                                ",
"                                                                                                                                ",
"                                                                                                                                ",
"                                                                                                                                ",
"                                                                                                                                "
};
