/* XPM */
static char *b69e83c4dafd4364ed84842fe6519c8fQTmxEJPcdADPOFe9[] = {
/* columns rows colors chars-per-pixel */
"64 64 9 1 ",
"  c None",
". c black",
"X c #212922",
"o c #A22633",
"O c #FF0044",
"+ c #E43B44",
"@ c #BF8124",
"# c #EBE0BD",
"$ c #F3F5E3",
/* pixels */
"                                                                ",
"                                                                ",
"                                                                ",
"                                                                ",
"                                                                ",
"                                                                ",
"                                                                ",
"                                                                ",
"                                                                ",
"                                                                ",
"                                                                ",
"                                                                ",
"                                                                ",
"                                                                ",
"                                                                ",
"                                                                ",
"                                                                ",
"                                                                ",
"                                                                ",
"                                                                ",
"                                      XXXXXX                    ",
"                                      XXXXXX                    ",
"                  XXXXXXXX            XXoo++XXXX                ",
"                  XXXXXXXX            XXoo++XXXX                ",
"                  XX++ooooXXXX      XXooooooooooXX              ",
"                  XX++ooooXXXX      XXooooooooooXX              ",
"      XXXX          XXooooooooXX    XXoooooooooo++XX            ",
"      XXXX          XXooooooooXX    XXoooooooooo++XX            ",
"      XXooXXXX      XXooooXXXXXXXXXXXXXXXXXXXXXXXXXXXX          ",
"      XXooXXXX      XXooooXXXXXXXXXXXXXXXXXXXXXXXXXXXX          ",
"      XX++ooooXXXX    XXXXOOOOOOOOOOOOOOOOOOOOOOOOOOOOXXXX      ",
"      XX++ooooXXXX    XXXXOOOOOOOOOOOOOOOOOOOOOOOOOOOOXXXX      ",
"        XXooooooooXX  XXOOOOOOooooooooOOOOOOOOOOOOOOOOOOOOXX    ",
"        XXooooooooXX  XXOOOOOOooooooooOOOOOOOOOOOOOOOOOOOOXX    ",
"        XXooooooooooXXOOOOOOOOOOOOOOOOOOOOOOooooOOOO@@..OOOOXX  ",
"        XXooooooooooXXOOOOOOOOOOOOOOOOOOOOOOooooOOOO@@..OOOOXX  ",
"          XXooooooooooOOOOooooooooOOOO......OOOOOOOOOOOOOOOOOOXX",
"          XXooooooooooOOOOooooooooOOOO......OOOOOOOOOOOOOOOOOOXX",
"            XXooooooooooooOOOOOOOOOO..oooooo..OOOOooooooOOOOXX  ",
"            XXooooooooooooOOOOOOOOOO..oooooo..OOOOooooooOOOOXX  ",
"          XXooooooooooOOOOOOOOOO$$..oooooooooo..OOOOOOOOOOOOOOXX",
"          XXooooooooooOOOOOOOOOO$$..oooooooooo..OOOOOOOOOOOOOOXX",
"        XXooooooooXXXXOOOOOO$$$$$$$$..oooooooooo$$$$$$$$####XX  ",
"        XXooooooooXXXXOOOOOO$$$$$$$$..oooooooooo$$$$$$$$####XX  ",
"        XXooooooXX    XXOO$$$$$$$$$$$$......$$$$$$$$$$$$XXXX    ",
"        XXooooooXX    XXOO$$$$$$$$$$$$......$$$$$$$$$$$$XXXX    ",
"      XXooooXXXX        XX$$$$$$$$$$$$$$$$$$$$$$$$$$XXXX        ",
"      XXooooXXXX        XX$$$$$$$$$$$$$$$$$$$$$$$$$$XXXX        ",
"      XX++XX              XXXXXXXXXXXXXXXXXXXXXXXXXX            ",
"      XX++XX              XXXXXXXXXXXXXXXXXXXXXXXXXX            ",
"      XXXX                                                      ",
"      XXXX                                                      ",
"                                                                ",
"                                                                ",
"                                                                ",
"                                                                ",
"                                                                ",
"                                                                ",
"                                                                ",
"                                                                ",
"                                                                ",
"                                                                ",
"                                                                ",
"                                                                "
};
