/* XPM */
static char *_62f943204f8406bbbb9c9eb76b801b1ekmxAMECscyZl9Aw[] = {
/* columns rows colors chars-per-pixel */
"32 32 7 1 ",
"  c #B37B37",
". c #D49243",
"X c #ED9942",
"o c #FFA952",
"O c #FFAD5C",
"+ c #FFB164",
"@ c #FFB675",
/* pixels */
"oooOoooooo..oooooo     .ooooooo+",
"o@Oooooo..Xooooo. .oooooo.XXoooo",
"@Oooooo..ooooo   .ooooX..XoooOoo",
"Oooooo.Xooooo  .ooooo..ooooooOoo",
"ooooo.Xooooo. ooOoXooXooooooo@oo",
"oooo..ooooo. ooOoo.XooooooooOOoo",
"oooX.oooooo oo@oo.ooooooooooOooo",
"ooX.oooooo. o@Oo.XoooooooooOoooo",
"oo.Xoooooo .o@O..oooooooooOXoooo",
"oX.oooooo. ooOo.Xooooo@oooXooooo",
"O.ooooooo .oOoo.oooooooooO.ooooo",
"..ooooooo oooooooooooooooooooooo",
".Xooooooo oooooooooooooooXooooOo",
".ooooooo. ooOoooooooooooo.ooooOo",
"Xooooooo ooOOoXooooooooo.XoooOO.",
"ooooooo. ooOoXoooo@ooooo.ooooOo.",
"ooooooo.oooOoXooooooooo.ooooOoo.",
"oooooo  ooOo..oooooooo.XooooOoX.",
"ooooo. .ooOo.ooooooooX.oooooOo.X",
"oooo  oooOOoXooooooooXooooO@OX.o",
"ooo. .ooOOo.ooooOooo..ooooOOo.Xo",
"oo  ooOoOoX.oooOooo.XoooooOoo.oo",
"o .o@OoOOo.ooooOoo.XoooooOoo.Xoo",
" ooO@ooOo.XooooOooooooooOoo..oo.",
"ooo@oooo..ooooOOoooooooOOoo.Xoo ",
"oo@ooOo..oooo@Oooooooooooo.Xooo ",
"ooooOO.XoooooO@Oooooooooo..ooo. ",
"ooooOXooooooo@OooooooooooXoooo .",
"ooOOooooooOoooooooooooooXoooo. o",
"ooOooooooOooooooooooX..ooooo  .o",
"oOooooooOOooooooooX..Xoooo.  ooo",
"+ooooooo@OoooooX...Xoooo.  .oooo"
};
